<svg xmlns:inkscape="http://www.inkscape.org/namespaces/inkscape" xmlns:sodipodi="http://sodipodi.sourceforge.net/DTD/sodipodi-0.dtd" xmlns="http://www.w3.org/2000/svg" xmlns:svg="http://www.w3.org/2000/svg" xmlns:rdf="http://www.w3.org/1999/02/22-rdf-syntax-ns#" xmlns:cc="http://creativecommons.org/ns#" xmlns:dc="http://purl.org/dc/elements/1.1/" id="svg2" version="1.1" sodipodi:docname="Aspire LH.svg" inkscape:version="1.1.2 (0a00cf5339, 2022-02-04)" viewBox="146.29 219.5 342.4 334.87">
  <sodipodi:namedview id="namedview71" pagecolor="#ffffff" bordercolor="#666666" borderopacity="1.0" inkscape:pageshadow="2" inkscape:pageopacity="0.0" inkscape:pagecheckerboard="0" showgrid="false" inkscape:zoom="0.86234567" inkscape:cx="298.02434" inkscape:cy="420.94489" inkscape:window-width="595.27557" inkscape:window-height="841.88977" inkscape:window-x="0" inkscape:window-y="27" inkscape:window-maximized="1" inkscape:current-layer="svg2"/>
  <metadata id="metadata46">
    <rdf:RDF>
      <cc:Work rdf:about="">
        <dc:format>image/svg+xml</dc:format>
        <dc:type rdf:resource="http://purl.org/dc/dcmitype/StillImage"/>
      </cc:Work>
    </rdf:RDF>
  </metadata>
  <defs id="defs44"/>
  <g id="g12" transform="matrix(2.9570611,0,0,2.942716,-1128.4008,100.9733)">
    <path id="path14" style="fill:#979797;fill-rule:evenodd" d="m 488.3526,40.2773 c 31.6321,0 57.2844,25.4789 57.2844,56.8972 0,31.4185 -25.6523,56.8975 -57.2844,56.8975 -31.6318,0 -57.2843,-25.479 -57.2843,-56.8975 0,-31.4183 25.6525,-56.8972 57.2843,-56.8972 z"/>
    <path id="path16" style="fill:#ffffff;fill-rule:evenodd" d="m 492.3609,43.3467 c 30.0938,0 54.4989,24.24 54.4989,54.1306 0,29.8907 -24.4051,54.1309 -54.4989,54.1309 -30.0938,0 -54.4987,-24.2402 -54.4987,-54.1309 0,-29.8906 24.4049,-54.1306 54.4987,-54.1306 z"/>
  </g>
  <path id="path18" style="fill:#102a83;fill-rule:evenodd;stroke-width:2.94988" d="m 321.05234,282.91377 c 9.03027,0 16.35314,7.17229 16.35314,16.01692 0,8.84404 -7.32287,16.01631 -16.35314,16.01631 -9.02968,0 -16.35255,-7.17227 -16.35255,-16.01631 0,-8.84463 7.32287,-16.01692 16.35255,-16.01692 z"/>
  <path id="path20" style="fill:#9f1778;fill-rule:evenodd;stroke-width:2.94988" d="m 293.79593,307.17676 c 7.9675,0 14.42927,6.13498 14.42927,13.69864 0,7.56454 -6.46177,13.69952 -14.42927,13.69952 -7.96751,0 -14.42928,-6.13498 -14.42928,-13.69952 0,-7.56366 6.46177,-13.69864 14.42928,-13.69864 z"/>
  <path id="path22" style="fill:#9f1778;fill-rule:evenodd;stroke-width:2.94988" d="m 321.06417,282.73191 c 9.02554,0 16.34546,7.17229 16.34546,16.01515 0,8.84345 -7.31992,16.01574 -16.34546,16.01574 -9.02554,0 -16.34545,-7.17229 -16.34545,-16.01574 0,-8.84286 7.31991,-16.01515 16.34545,-16.01515 z"/>
  <path id="path24" style="fill:#9f1778;fill-rule:evenodd;stroke-width:2.94988" d="m 271.31369,329.74504 c 6.13856,0 11.11736,4.39789 11.11736,9.82161 0,5.42283 -4.9788,9.82073 -11.11736,9.82073 -6.13857,0 -11.11737,-4.3979 -11.11737,-9.82073 0,-5.42372 4.9788,-9.82161 11.11737,-9.82161 z"/>
  <path id="path26" style="fill:#9f1778;fill-rule:evenodd;stroke-width:2.94988" d="m 238.87117,362.5007 c 3.37283,0 6.10811,2.32327 6.10811,5.18566 0,2.86326 -2.73528,5.18594 -6.10811,5.18594 -3.37253,0 -6.10869,-2.32268 -6.10869,-5.18594 0,-2.86239 2.73616,-5.18566 6.10869,-5.18566 z"/>
  <path id="path28" style="fill:#9f1778;fill-rule:evenodd;stroke-width:2.94988" d="m 252.60968,347.40221 c 5.29019,0 9.5794,3.78994 9.5794,8.46297 0,4.67302 -4.28921,8.46355 -9.5794,8.46355 -5.28988,0 -9.57999,-3.79053 -9.57999,-8.46355 0,-4.67303 4.29011,-8.46297 9.57999,-8.46297 z"/>
  <path id="path30" style="fill:#1b1918;fill-rule:evenodd;stroke-width:2.94988" d="m 252.89268,438.01344 v 2.60107 c -1.16154,0.66064 -2.29173,0.99081 -3.39028,0.99081 -1.49686,0 -2.80684,-0.55794 -3.93171,-1.67734 -1.12574,-1.12029 -1.68641,-2.41862 -1.68641,-3.89086 0,-1.67382 0.56067,-3.06102 1.68198,-4.16395 1.12043,-1.10204 2.52386,-1.65056 4.21469,-1.65056 1.00867,0 2.04452,0.25895 3.11173,0.7807 v 2.53927 c -1.14764,-0.73157 -2.23317,-1.09763 -3.25574,-1.09763 -0.94595,0 -1.77541,0.32959 -2.48392,0.98993 -0.70822,0.66505 -1.06277,1.44193 -1.06277,2.32946 0,0.99934 0.33178,1.84301 0.99565,2.52985 0.66799,0.683 1.47941,1.02641 2.44371,1.02641 0.98234,0 2.10277,-0.43728 3.36307,-1.30716 z m 1.61899,-2.1467 c 0,-1.47224 0.58254,-2.77939 1.75294,-3.92646 1.17041,-1.1465 2.51085,-1.71767 4.02604,-1.71767 1.56074,0 2.92394,0.56235 4.08548,1.69147 1.16596,1.12883 1.7485,2.44481 1.7485,3.95266 0,1.51756 -0.57396,2.85149 -1.71272,4.00739 -1.14321,1.15589 -2.46619,1.73119 -3.96395,1.73119 -1.60095,0 -2.99047,-0.57087 -4.17034,-1.70853 -1.17898,-1.14296 -1.76595,-2.48571 -1.76595,-4.03005 z m 9.407,0 c 0,-0.9143 -0.34953,-1.70854 -1.0542,-2.38213 -0.69875,-0.67888 -1.5285,-1.01347 -2.49251,-1.01347 -0.9912,0 -1.84283,0.33987 -2.55637,1.02642 -0.71265,0.683 -1.07135,1.49931 -1.07135,2.44981 0,0.90577 0.36313,1.7 1.08525,2.37801 0.72151,0.67889 1.5696,1.02199 2.54247,1.02199 0.94567,0 1.771,-0.35194 2.4795,-1.04818 0.71266,-0.69596 1.06721,-1.50873 1.06721,-2.43245 z m 7.183,-5.34515 v 2.22233 0 c 0.51187,-0.88811 1.00451,-1.53051 1.49331,-1.92777 0.48467,-0.39697 1.11717,-0.59354 1.89695,-0.59354 0.21942,0 0.53376,0.0489 0.94597,0.15567 l -0.69521,2.27619 c -0.43941,-0.0894 -0.72595,-0.13396 -0.86996,-0.13396 -0.76676,0 -1.412,0.2678 -1.93687,0.80307 -0.51986,0.5397 -0.78008,1.20475 -0.78008,2.00782 v 5.9749 h -2.2864 v -10.78477 z m 8.98592,0 v 2.16849 0 c 1.09411,-1.64676 2.49753,-2.46747 4.20582,-2.46747 1.39928,0 2.60518,0.55293 3.61826,1.6644 1.00955,1.11087 1.51609,2.4404 1.51609,3.97973 0,1.5617 -0.51157,2.90976 -1.53797,4.04299 -1.02255,1.12913 -2.23317,1.69559 -3.62329,1.69559 -0.80698,0 -1.57819,-0.2051 -2.31804,-0.62473 -0.73956,-0.41904 -1.35433,-1.02642 -1.83397,-1.81565 v 0 7.20141 h -2.28639 v -15.84476 z m 6.94997,5.34515 c 0,-0.94991 -0.35898,-1.78005 -1.07608,-2.48925 -0.71708,-0.70977 -1.56487,-1.06644 -2.53774,-1.06644 -0.98618,0 -1.84284,0.35224 -2.56496,1.06144 -0.72596,0.70566 -1.08494,1.53551 -1.08494,2.49425 0,0.9864 0.35396,1.83889 1.07164,2.56133 0.71265,0.72744 1.55541,1.08882 2.52918,1.08882 1.00422,0 1.86974,-0.35697 2.58682,-1.07498 0.7171,-0.7145 1.07608,-1.57053 1.07608,-2.57517 z m 4.7307,0 c 0,-1.47224 0.58256,-2.77939 1.75295,-3.92646 1.17041,-1.1465 2.51084,-1.71767 4.02604,-1.71767 1.56074,0 2.92395,0.56235 4.08548,1.69147 1.16597,1.12883 1.74851,2.44481 1.74851,3.95266 0,1.51756 -0.57397,2.85149 -1.71273,4.00739 -1.1432,1.15589 -2.46619,1.73119 -3.96394,1.73119 -1.60095,0 -2.99047,-0.57087 -4.17034,-1.70853 -1.17898,-1.14296 -1.76597,-2.48571 -1.76597,-4.03005 z m 9.40701,0 c 0,-0.9143 -0.34952,-1.70854 -1.05418,-2.38213 -0.69877,-0.67888 -1.52851,-1.01347 -2.49252,-1.01347 -0.9912,0 -1.84284,0.33987 -2.55638,1.02642 -0.71265,0.683 -1.07134,1.49931 -1.07134,2.44981 0,0.90577 0.36312,1.7 1.08525,2.37801 0.72152,0.67889 1.5696,1.02199 2.54247,1.02199 0.94568,0 1.77099,-0.35194 2.4795,-1.04818 0.71265,-0.69596 1.0672,-1.50873 1.0672,-2.43245 z m 7.18299,-5.34515 v 2.22233 0 c 0.51188,-0.88811 1.00452,-1.53051 1.49333,-1.92777 0.48466,-0.39697 1.11717,-0.59354 1.89695,-0.59354 0.21941,0 0.53375,0.0489 0.94596,0.15567 l -0.6952,2.27619 c -0.43941,-0.0894 -0.72596,-0.13396 -0.86997,-0.13396 -0.76677,0 -1.412,0.2678 -1.93687,0.80307 -0.51985,0.5397 -0.78008,1.20475 -0.78008,2.00782 v 5.9749 h -2.28639 v -10.78477 z m 15.29038,0 h 2.28641 v 10.78476 h -2.28641 v -2.14141 c -1.11186,1.62879 -2.49339,2.44038 -4.1387,2.44038 -1.42619,0 -2.64538,-0.55794 -3.65906,-1.67293 -1.00895,-1.11588 -1.5155,-2.46835 -1.5155,-4.06565 0,-1.50785 0.51098,-2.82383 1.52939,-3.95266 1.02166,-1.12912 2.21898,-1.69147 3.59106,-1.69147 0.85222,0 1.6592,0.22776 2.4174,0.69183 0.76173,0.45906 1.35373,1.06144 1.77541,1.80271 z m 0.30044,5.42578 c 0,-0.9861 -0.35455,-1.8292 -1.06277,-2.52985 -0.70821,-0.70037 -1.56074,-1.0532 -2.54662,-1.0532 -0.9643,0 -1.80706,0.34841 -2.52474,1.04436 -0.71709,0.70066 -1.07607,1.51668 -1.07607,2.45806 0,1.022 0.34952,1.88775 1.04887,2.60195 0.70408,0.7136 1.55187,1.07085 2.55194,1.07085 0.98588,0 1.83841,-0.35283 2.54662,-1.06203 0.70822,-0.7092 1.06277,-1.55316 1.06277,-2.53014 z m 6.15187,-8.56302 h 2.2864 v 3.13724 h 2.26008 v 2.07902 h -2.26008 v 8.70574 h -2.2864 v -8.70574 h -1.79819 v -2.1058 h 1.79819 z m 17.37865,8.96911 h -9.24969 c 0.20197,1.10646 0.65853,1.91453 1.37651,2.42304 0.71265,0.5085 1.4883,0.76304 2.33164,0.76304 1.2955,0 2.38073,-0.53527 3.25514,-1.60614 l 1.66808,1.25331 c -1.25084,1.61554 -2.92838,2.41861 -5.03115,2.41861 -1.60982,0 -2.95912,-0.5491 -4.04467,-1.64674 -1.08464,-1.09763 -1.62697,-2.46305 -1.62697,-4.09184 0,-1.5255 0.54676,-2.84649 1.64531,-3.96649 1.09854,-1.1197 2.44371,-1.67764 4.02633,-1.67764 1.56044,0 2.89674,0.56676 4.00859,1.70442 1.11246,1.13765 1.65921,2.60989 1.64088,4.42643 z m -9.01194,-1.82066 H 345.09 c -0.73513,-1.48107 -1.82511,-2.22175 -3.25987,-2.22175 -1.56429,0 -2.6856,0.74068 -3.36247,2.22175 z m 25.60282,-2.73083 -1.52406,1.33393 c -0.39478,-0.28073 -0.73543,-0.49026 -1.02699,-0.63357 -0.28742,-0.14244 -0.62808,-0.21364 -1.02285,-0.21364 -0.92763,0 -1.39395,0.339 -1.39395,1.01671 0,0.48672 0.5914,0.95962 1.76684,1.41927 1.17898,0.45554 2.02617,0.95962 2.54218,1.50785 0.51986,0.5494 0.77564,1.21416 0.77564,1.99045 0,0.90635 -0.372,1.6956 -1.11689,2.36977 -0.74398,0.678 -1.61839,1.01258 -2.62704,1.01258 -1.53354,0 -2.78941,-0.70477 -3.77115,-2.11522 l 1.80263,-0.86574 c 0.62779,0.61178 1.28662,0.91518 1.96852,0.91518 0.47519,0 0.88741,-0.12504 1.24196,-0.38403 0.35455,-0.25837 0.53345,-0.55294 0.53345,-0.89694 0,-0.59795 -0.62335,-1.13765 -1.86531,-1.61937 -1.2464,-0.4779 -2.1075,-0.96375 -2.5827,-1.45899 -0.4749,-0.49115 -0.71768,-1.09793 -0.71768,-1.82096 0,-0.89694 0.34125,-1.64615 1.01812,-2.24412 0.68131,-0.59354 1.53383,-0.89252 2.55549,-0.89252 1.02699,0 2.17462,0.52675 3.44379,1.57936 z m 1.81209,4.06477 c 0,-1.47224 0.58254,-2.77939 1.75265,-3.92646 1.17041,-1.1465 2.51085,-1.71767 4.02634,-1.71767 1.56044,0 2.92364,0.56235 4.08518,1.69147 1.16596,1.12883 1.74851,2.44481 1.74851,3.95266 0,1.51756 -0.57367,2.85149 -1.71273,4.00739 -1.14321,1.15589 -2.46619,1.73119 -3.96394,1.73119 -1.60067,0 -2.99048,-0.57087 -4.17006,-1.70853 -1.17927,-1.14296 -1.76595,-2.48571 -1.76595,-4.03005 z m 9.40671,0 c 0,-0.9143 -0.34952,-1.70854 -1.0542,-2.38213 -0.69875,-0.67888 -1.52821,-1.01347 -2.49249,-1.01347 -0.99122,0 -1.84285,0.33987 -2.55609,1.02642 -0.71265,0.683 -1.07165,1.49931 -1.07165,2.44981 0,0.90577 0.36313,1.7 1.08555,2.37801 0.72123,0.67889 1.5693,1.02199 2.54219,1.02199 0.94595,0 1.77127,-0.35194 2.47949,-1.04818 0.71265,-0.69596 1.0672,-1.50873 1.0672,-2.43245 z m 4.97702,-11.52956 h 2.2873 v 16.96917 h -2.2873 z m 5.17456,6.18441 h 2.28641 v 6.077 c 0,1.87451 0.82532,2.81146 2.47949,2.81146 0.74045,0 1.31855,-0.25013 1.74911,-0.75009 0.43055,-0.50408 0.64552,-1.1862 0.64552,-2.06137 v -6.077 h 2.26009 v 6.44278 c 0,1.35247 -0.44446,2.46394 -1.32743,3.3338 -0.88801,0.87429 -2.01731,1.30715 -3.38939,1.30715 -1.40341,0 -2.53804,-0.43286 -3.40328,-1.30715 -0.86552,-0.86986 -1.30052,-2.00841 -1.30052,-3.40943 z m 12.91408,-3.13724 h 2.28641 v 3.13724 h 2.26008 v 2.07902 h -2.26008 v 8.70574 h -2.28641 v -8.70574 h -1.79818 v -2.1058 h 1.79818 z m 6.13355,-0.4058 c 0,-0.46847 0.17476,-0.87899 0.52487,-1.22299 0.34924,-0.34341 0.76677,-0.51703 1.25054,-0.51703 0.47076,0 0.87854,0.17362 1.22866,0.51703 0.3451,0.344 0.51542,0.75452 0.51542,1.22299 0,0.4779 -0.17032,0.88811 -0.51542,1.22713 -0.35012,0.34311 -0.7579,0.5135 -1.22866,0.5135 -0.48377,0 -0.9013,-0.17039 -1.25054,-0.5135 -0.35011,-0.33902 -0.52487,-0.74923 -0.52487,-1.22713 z m 0.64522,3.54304 h 2.26038 v 10.78476 h -2.26038 z m 5.06723,5.34515 c 0,-1.47224 0.58254,-2.77939 1.75293,-3.92646 1.17011,-1.1465 2.51085,-1.71767 4.02605,-1.71767 1.56074,0 2.92394,0.56235 4.08547,1.69147 1.16568,1.12883 1.74822,2.44481 1.74822,3.95266 0,1.51756 -0.57368,2.85149 -1.71244,4.00739 -1.14319,1.15589 -2.46648,1.73119 -3.96423,1.73119 -1.60066,0 -2.99018,-0.57087 -4.17005,-1.70853 -1.17898,-1.14296 -1.76595,-2.48571 -1.76595,-4.03005 z m 9.4067,0 c 0,-0.9143 -0.34923,-1.70854 -1.05389,-2.38213 -0.69905,-0.67888 -1.52851,-1.01347 -2.49281,-1.01347 -0.9912,0 -1.84255,0.33987 -2.55608,1.02642 -0.71265,0.683 -1.07164,1.49931 -1.07164,2.44981 0,0.90577 0.36343,1.7 1.08554,2.37801 0.72152,0.67889 1.56931,1.02199 2.54218,1.02199 0.94597,0 1.77128,-0.35194 2.47949,-1.04818 0.71267,-0.69596 1.06721,-1.50873 1.06721,-2.43245 z m 4.2286,5.43961 v -10.78476 h 2.23317 v 1.78946 c 0.65943,-0.72302 1.25084,-1.24947 1.78873,-1.58847 0.53345,-0.33459 1.13019,-0.49997 1.78488,-0.49997 0.98175,0 1.82007,0.32075 2.51527,0.96403 0.69522,0.64652 1.04473,1.4234 1.04473,2.32916 v 7.79055 h -2.28668 v -7.12579 c 0,-0.58472 -0.18838,-1.06644 -0.56924,-1.45046 -0.38176,-0.38344 -0.86554,-0.57531 -1.4531,-0.57531 -0.76174,0 -1.41673,0.32076 -1.96852,0.96375 -0.5512,0.63798 -0.82886,1.40984 -0.82886,2.32062 v 5.86719 z m 18.74717,-9.50438 -1.52406,1.33393 c -0.39478,-0.28073 -0.73543,-0.49026 -1.027,-0.63357 -0.28742,-0.14244 -0.62778,-0.21364 -1.02255,-0.21364 -0.92762,0 -1.39395,0.339 -1.39395,1.01671 0,0.48672 0.59141,0.95962 1.76655,1.41927 1.17928,0.45554 2.02647,0.95962 2.54248,1.50785 0.51955,0.5494 0.77564,1.21416 0.77564,1.99045 0,0.90635 -0.3723,1.6956 -1.11718,2.36977 -0.74399,0.678 -1.6181,1.01258 -2.62705,1.01258 -1.53354,0 -2.7894,-0.70477 -3.77085,-2.11522 l 1.80233,-0.86574 c 0.62808,0.61178 1.28662,0.91518 1.96852,0.91518 0.47519,0 0.88741,-0.12504 1.24196,-0.38403 0.35456,-0.25837 0.53375,-0.55294 0.53375,-0.89694 0,-0.59795 -0.62365,-1.13765 -1.86561,-1.61937 -1.2461,-0.4779 -2.10721,-0.96375 -2.5824,-1.45899 -0.4752,-0.49115 -0.71798,-1.09793 -0.71798,-1.82096 0,-0.89694 0.34154,-1.64615 1.01841,-2.24412 0.68132,-0.59354 1.53354,-0.89252 2.55549,-0.89252 1.027,0 2.17463,0.52675 3.4435,1.57936 z"/>
  <path id="path32" style="fill:none;stroke:#9f1778;stroke-width:2.95018;stroke-linecap:butt;stroke-linejoin:miter;stroke-dasharray:none" d="m 193.84549,423.07152 247.50867,-1.52551"/>
  <path id="path34" style="fill:#1b1918;fill-rule:evenodd;stroke-width:2.94988" d="m 206.44849,402.23532 -3.24775,5.6403 v 10.1403 h -9.55279 v -12.80198 l 12.92768,-22.05537 c 1.10447,-1.94366 2.58979,-3.47475 4.45837,-4.59417 1.86826,-1.12029 4.03343,-1.6797 6.49607,-1.6797 2.50493,0 4.65973,0.48585 6.46384,1.45783 1.8047,0.97167 3.34355,2.59812 4.61745,4.87931 l 12.80083,21.9921 v 12.80198 h -9.55309 v -10.3301 l -3.18416,-5.4505 z m 16.6858,-9.50674 -2.80241,-4.81634 c -0.33917,-0.67653 -0.73246,-1.09911 -1.1778,-1.26773 -0.44592,-0.16891 -0.98736,-0.25307 -1.62401,-0.25307 -0.55209,0 -1.00895,0.0632 -1.36913,0.18981 -0.36105,0.12648 -0.71117,0.44376 -1.05122,0.95078 -0.0423,0.0842 -0.0849,0.15832 -0.12718,0.22159 -0.0423,0.0635 -0.0849,0.13683 -0.12718,0.22189 l -2.80241,4.75307 z m 56.23384,9.50674 c 0,0 -1.32654,0 -3.97991,0 -2.65337,0 -5.59416,0 -8.82061,0 -1.69795,0 -3.3536,0 -4.96757,0 -1.61338,0 -3.03572,0 -4.26675,0 -3.48164,0 -6.47478,-1.24683 -8.98,-3.72872 -2.50493,-2.49307 -3.75724,-5.46079 -3.75724,-8.91525 0,-3.49625 1.25231,-6.47486 3.75724,-8.94674 2.50522,-2.4607 5.49836,-3.69664 8.98,-3.69664 l 35.02728,-0.0632 v 9.50674 h -35.02728 c -0.84927,0.0421 -1.59207,0.36931 -2.22874,0.98199 -0.63753,0.61238 -0.95542,1.36247 -0.95542,2.24969 0,0.84546 0.32911,1.58437 0.98677,2.21794 0.65795,0.63444 1.39041,0.95079 2.19739,0.95079 0,0 1.15711,0 3.47071,0 2.31419,0 4.85047,0 7.61059,0 2.50521,0 4.83982,0 7.00498,0 2.16574,0 3.48164,0 3.94856,0 3.52423,0 6.5283,1.24683 9.01135,3.7396 2.48393,2.49219 3.7259,5.49199 3.7259,8.99913 0,3.46444 -1.24197,6.43247 -3.7259,8.90436 -2.48305,2.47158 -5.48712,3.70752 -9.01135,3.70752 h -34.83566 v -9.57 h 34.83566 c 0.89184,0.0424 1.6456,-0.25308 2.26097,-0.89753 0.61537,-0.63357 0.92319,-1.38367 0.92319,-2.23912 0,-0.8984 -0.30782,-1.65851 -0.92319,-2.27089 -0.61537,-0.62356 -1.36913,-0.9296 -2.26097,-0.9296 z m 25.72938,0 v 15.84387 h -9.55307 V 376.8847 h 31.84252 c 3.52393,0.0421 6.528,1.30921 9.01194,3.79198 2.48393,2.49279 3.72501,5.482 3.72501,8.97794 0,3.45446 -1.24108,6.41217 -3.72501,8.88317 -2.48394,2.46158 -5.48801,3.69753 -9.01194,3.69753 -1.14616,0 -2.62144,0 -4.42613,0 -1.8041,0 -3.68273,0 -5.63587,0 -3.05671,0 -5.85942,0 -8.40662,0 -2.54751,0 -3.82083,0 -3.82083,0 z m 0,-15.84388 v 6.33714 h 22.28945 c 0.84927,0.0421 1.59267,-0.25307 2.22932,-0.89752 0.63666,-0.63445 0.95544,-1.38368 0.95544,-2.23971 0,-0.89782 -0.30784,-1.65793 -0.92409,-2.27119 -0.61536,-0.62267 -1.36911,-0.92872 -2.26067,-0.92872 z m 47.76424,31.68775 h -9.55309 V 376.8847 h 9.55309 z m 3.18416,-41.19449 c 0,0.0421 1.6453,0.0632 4.93533,0.0632 3.29092,0 6.90977,0 10.85863,0 3.39677,0 6.59099,0 9.58442,0 2.99314,0 4.91434,0 5.76361,0 3.52393,0 6.52742,1.23594 9.01134,3.70753 2.48395,2.47188 3.72561,5.46079 3.72561,8.96763 0,1.43664 -0.21173,2.79911 -0.63666,4.08744 -0.42463,1.28891 -0.97642,2.48276 -1.65565,3.58098 0.97671,1.09852 1.71923,2.34535 2.22873,3.73903 0.50951,1.39454 0.7641,2.87326 0.7641,4.43673 v 12.61188 h -9.55249 v -12.67545 c 0,-0.7601 -0.26525,-1.43663 -0.79603,-2.02783 -0.5305,-0.59148 -1.1571,-0.95079 -1.87921,-1.07733 -0.0849,0 -1.30555,0 -3.66144,0 -2.35648,0 -4.93533,0 -7.73804,0 -2.8441,0 -5.45577,0 -7.83295,0 -2.37778,0 -3.56652,0 -3.56652,0 v 15.84388 h -9.55278 z m 31.46076,9.50674 h -21.90798 v 6.33714 h 21.90798 c 0.84868,0.0421 1.59208,-0.25307 2.22874,-0.89752 0.63666,-0.63445 0.95513,-1.38368 0.95513,-2.23971 0,-0.89782 -0.31847,-1.65793 -0.95513,-2.27119 -0.63666,-0.62267 -1.38006,-0.92872 -2.22874,-0.92872 z m 25.85625,22.18102 h 28.65836 v 9.50673 H 403.81013 V 376.8847 h 37.8288 v 9.50674 h -28.27601 v 6.33714 h 27.06627 v 9.50674 h -27.06627 z"/>
</svg>