<?xml version="1.0" encoding="UTF-8"?>
<!DOCTYPE svg PUBLIC "-//W3C//DTD SVG 1.1//EN" "http://www.w3.org/Graphics/SVG/1.1/DTD/svg11.dtd">
<!-- Creator: CorelDRAW 2017 -->
<svg xmlns="http://www.w3.org/2000/svg" xml:space="preserve" width="42.3332mm" height="42.3332mm" version="1.1" style="shape-rendering:geometricPrecision; text-rendering:geometricPrecision; image-rendering:optimizeQuality; fill-rule:evenodd; clip-rule:evenodd"
viewBox="0 0 4233 4233"
 xmlns:xlink="http://www.w3.org/1999/xlink">
 <defs>
  <style type="text/css">
   <![CDATA[
    .str0 {stroke:#9F1778;stroke-width:78.06}
    .fil5 {fill:none}
    .fil2 {fill:#102A83}
    .fil4 {fill:#1B1918}
    .fil0 {fill:#979797}
    .fil3 {fill:#9F1778}
    .fil1 {fill:white}
   ]]>
  </style>
 </defs>
 <g id="Layer_x0020_1">
  <metadata id="CorelCorpID_0Corel-Layer"/>
  <g id="g12">
   <path id="path14" class="fil0" d="M2201 78c1111,44 1998,948 1998,2057 0,1137 -933,2059 -2083,2059 -1150,0 -2083,-922 -2083,-2059 0,-1109 887,-2013 1998,-2057l170 0 0 0z"/>
   <path id="path16" class="fil1" d="M2262 187c950,0 1745,662 1937,1545l0 828c-192,883 -987,1545 -1937,1545 -1095,0 -1982,-877 -1982,-1959 0,-1081 887,-1959 1982,-1959l0 0z"/>
  </g>
  <path id="path18" class="fil2" d="M2319 1049c92,0 166,73 166,163 0,90 -74,163 -166,163 -92,0 -166,-73 -166,-163 0,-90 74,-163 166,-163z"/>
  <path id="path20" class="fil3" d="M2042 1295c81,0 146,62 146,139 0,77 -66,139 -146,139 -81,0 -146,-62 -146,-139 0,-77 66,-139 146,-139z"/>
  <path id="path22" class="fil3" d="M2319 1047c92,0 166,73 166,163 0,90 -74,163 -166,163 -92,0 -166,-73 -166,-163 0,-90 74,-163 166,-163z"/>
  <path id="path24" class="fil3" d="M1814 1524c62,0 113,44 113,100 0,55 -51,100 -113,100 -62,0 -113,-44 -113,-100 0,-55 51,-100 113,-100z"/>
  <path id="path26" class="fil3" d="M1485 1857c34,0 62,23 62,53 0,29 -28,53 -62,53 -34,0 -62,-23 -62,-53 0,-29 28,-53 62,-53z"/>
  <path id="path28" class="fil3" d="M1625 1703c54,0 97,38 97,86 0,48 -43,86 -97,86 -54,0 -97,-38 -97,-86 0,-48 44,-86 97,-86z"/>
  <path id="path30" class="fil4" d="M1627 2623l0 26c-12,7 -23,10 -35,10 -15,0 -28,-6 -40,-17 -12,-12 -17,-25 -17,-39 0,-17 6,-31 17,-42 12,-11 26,-17 43,-17 10,0 21,3 31,8l0 26c-12,-7 -23,-11 -33,-11 -10,0 -18,3 -25,10 -7,7 -11,15 -11,24 0,10 3,19 10,26 7,7 15,10 25,10 10,0 21,-5 34,-13l0 0zm16 -22c0,-15 6,-28 18,-40 12,-12 25,-17 41,-17 16,0 30,6 41,17 12,12 18,25 18,40 0,15 -6,29 -17,41 -12,12 -25,18 -40,18 -16,0 -30,-6 -42,-17 -12,-12 -18,-25 -18,-41l0 0 0 0zm95 0c0,-9 -3,-17 -11,-24 -7,-7 -15,-10 -25,-10 -10,0 -19,3 -26,10 -7,7 -11,15 -11,25 0,9 4,17 11,24 7,7 16,10 26,10 10,0 18,-3 25,-11 7,-7 11,-15 11,-25l0 0zm73 -54l0 23 0 0c5,-9 10,-15 15,-20 5,-4 12,-6 19,-6 2,0 5,0 10,2l-7 23c-5,-1 -7,-2 -9,-2 -8,0 -14,3 -20,8 -5,5 -8,12 -8,20l0 61 -23 0 0 -109 23 0 0 0zm91 0l0 22 0 0c11,-17 25,-25 43,-25 14,0 26,6 37,17 10,11 15,25 15,40 0,16 -5,30 -16,41 -10,12 -23,17 -37,17 -8,0 -16,-2 -23,-7 -8,-4 -14,-10 -19,-18l0 0 0 73 -23 0 0 -161 23 0zm71 54c0,-10 -4,-18 -11,-25 -7,-7 -16,-11 -26,-11 -10,0 -19,3 -26,11 -7,7 -11,16 -11,25 0,10 3,19 11,26 7,7 16,11 26,11 10,0 19,-3 26,-11 7,-7 11,-16 11,-26l0 0zm48 0c0,-15 6,-28 18,-40 12,-12 25,-17 41,-17 16,0 30,6 41,17 12,12 18,25 18,40 0,15 -6,29 -17,41 -12,12 -25,18 -40,18 -16,0 -30,-6 -42,-17 -12,-12 -18,-25 -18,-41l0 0 0 0zm95 0c0,-9 -3,-17 -11,-24 -7,-7 -15,-10 -25,-10 -10,0 -19,3 -26,10 -7,7 -11,15 -11,25 0,9 4,17 11,24 7,7 16,10 26,10 10,0 18,-3 25,-11 7,-7 11,-15 11,-25l0 0zm73 -54l0 23 0 0c5,-9 10,-15 15,-20 5,-4 12,-6 19,-6 2,0 5,0 10,2l-7 23c-5,-1 -7,-2 -9,-2 -8,0 -14,3 -20,8 -5,5 -8,12 -8,20l0 61 -23 0 0 -109 23 0 0 0zm155 0l23 0 0 109 -23 0 0 -22c-11,16 -25,25 -42,25 -15,0 -27,-6 -37,-17 -10,-12 -15,-25 -15,-41 0,-15 5,-29 15,-40 10,-12 23,-17 36,-17 9,0 17,2 25,7 8,5 14,11 18,18l0 -22 0 0zm3 55c0,-10 -3,-18 -11,-26 -7,-7 -16,-11 -26,-11 -10,0 -18,3 -26,11 -7,7 -11,15 -11,25 0,10 3,19 11,26 7,7 16,11 26,11 10,0 19,-3 26,-11 7,-7 11,-16 11,-26l0 0 0 0zm62 -87l23 0 0 32 23 0 0 21 -23 0 0 88 -23 0 0 -88 -18 0 0 -21 18 0 0 -31zm176 91l-94 0c2,11 7,20 14,25 7,5 15,8 24,8 13,0 24,-5 33,-16l17 13c-13,16 -30,25 -51,25 -16,0 -30,-6 -41,-17 -11,-11 -16,-25 -16,-41 0,-15 5,-29 17,-40 11,-12 25,-17 41,-17 16,0 30,6 41,17 11,12 17,26 16,45l0 0 0 0zm-91 -18l67 0c-7,-15 -18,-23 -33,-23 -16,0 -27,8 -34,23zm260 -28l-15 13c-4,-3 -7,-5 -10,-7 -3,-2 -7,-2 -10,-2 -10,0 -14,3 -14,10 0,5 6,10 18,15 12,5 21,10 26,15 5,6 8,12 8,20 0,9 -4,17 -12,24 -8,7 -16,10 -27,10 -16,0 -28,-7 -38,-21l18 -9c7,6 13,9 20,9 5,0 9,-1 13,-4 3,-3 5,-6 5,-9 0,-6 -6,-12 -19,-16 -13,-5 -21,-10 -26,-15 -5,-5 -7,-11 -7,-18 0,-9 3,-17 10,-23 7,-6 16,-9 26,-9 10,0 22,5 35,16l0 0 0 0zm18 41c0,-15 6,-28 18,-40 12,-12 25,-17 41,-17 16,0 30,6 41,17 12,12 18,25 18,40 0,15 -6,29 -17,41 -12,12 -25,18 -40,18 -16,0 -30,-6 -42,-17 -12,-12 -18,-25 -18,-41l0 0 0 0zm95 0c0,-9 -3,-17 -11,-24 -7,-7 -15,-10 -25,-10 -10,0 -19,3 -26,10 -7,7 -11,15 -11,25 0,9 4,17 11,24 7,7 16,10 26,10 10,0 18,-3 25,-11 7,-7 11,-15 11,-25l0 0zm51 -117l23 0 0 172 -23 0 0 -172zm53 63l23 0 0 62c0,19 8,28 25,28 8,0 13,-3 18,-8 4,-5 7,-12 7,-21l0 -62 23 0 0 65c0,14 -5,25 -13,34 -9,9 -20,13 -35,13 -14,0 -26,-4 -35,-13 -9,-9 -13,-20 -13,-35l0 -64 0 0zm131 -32l23 0 0 32 23 0 0 21 -23 0 0 88 -23 0 0 -88 -18 0 0 -21 18 0 0 -31zm62 -4c0,-5 2,-9 5,-12 3,-3 8,-5 13,-5 5,0 9,2 13,5 3,3 5,8 5,12 0,5 -2,9 -5,12 -3,3 -8,5 -13,5 -5,0 -9,-2 -13,-5 -3,-3 -5,-8 -5,-12zm7 36l23 0 0 109 -23 0 0 -109zm51 54c0,-15 6,-28 18,-40 12,-12 25,-17 41,-17 16,0 30,6 41,17 12,12 18,25 18,40 0,15 -6,29 -17,41 -12,12 -25,18 -40,18 -16,0 -30,-6 -42,-17 -12,-12 -18,-25 -18,-41l0 0 0 0zm95 0c0,-9 -3,-17 -11,-24 -7,-7 -15,-10 -25,-10 -10,0 -19,3 -26,10 -7,7 -11,15 -11,25 0,9 4,17 11,24 7,7 16,10 26,10 10,0 18,-3 25,-11 7,-7 11,-15 11,-25l0 0zm43 55l0 -109 23 0 0 18c7,-7 13,-13 18,-16 5,-3 12,-5 18,-5 10,0 18,3 26,10 7,7 11,15 11,24l0 79 -23 0 0 -72c0,-6 -2,-11 -6,-15 -4,-4 -9,-6 -15,-6 -8,0 -14,3 -20,10 -6,7 -8,14 -8,23l0 59 -23 0 0 0zm190 -96l-15 13c-4,-3 -7,-5 -10,-7 -3,-2 -7,-2 -10,-2 -10,0 -14,3 -14,10 0,5 6,10 18,15 12,5 21,10 26,15 5,6 8,12 8,20 0,9 -4,17 -12,24 -8,7 -16,10 -27,10 -16,0 -28,-7 -38,-21l18 -9c7,6 13,9 20,9 5,0 9,-1 13,-4 3,-3 5,-6 5,-9 0,-6 -7,-12 -19,-16 -13,-5 -21,-10 -26,-15 -5,-5 -7,-11 -7,-18 0,-9 3,-17 10,-23 7,-6 16,-9 26,-9 10,0 22,5 35,16l0 0 0 0z"/>
  <line id="path32" class="fil5 str0" x1="1028" y1="2471" x2="3539" y2= "2456" />
  <path id="path34" class="fil4" d="M1156 2260l-33 57 0 103 -97 0 0 -130 131 -224c11,-20 26,-35 45,-47 19,-12 41,-17 66,-17 25,0 47,5 66,15 18,10 34,26 47,49l130 223 0 130 -97 0 0 -105 -32 -55 -225 0zm169 -97l-28 -49c-3,-7 -7,-11 -12,-13 -5,-2 -10,-3 -16,-3 -6,0 -10,1 -14,2 -4,1 -7,5 -11,10 0,1 -1,2 -1,2 0,1 -1,2 -1,2l-28 48 112 0 0 0zm571 97c0,0 -13,0 -40,0 -27,0 -57,0 -89,0 -17,0 -34,0 -50,0 -16,0 -31,0 -43,0 -35,0 -66,-13 -91,-38 -25,-25 -38,-55 -38,-90 0,-36 13,-66 38,-91 25,-25 56,-38 91,-38l355 -1 0 97 -355 0c-8,0 -16,4 -23,10 -7,6 -10,14 -10,23 0,8 3,16 10,23 7,7 14,10 22,10 0,0 12,0 35,0 23,0 49,0 77,0 25,0 49,0 71,0 22,0 35,0 40,0 36,0 66,13 91,38 25,25 38,56 38,91 0,35 -13,65 -38,90 -25,25 -56,38 -91,38l-354 0 0 -97 354 0c9,0 17,-3 23,-9 6,-7 9,-14 9,-23 0,-9 -3,-17 -9,-23 -6,-7 -14,-10 -23,-10zm261 0l0 161 -97 0 0 -418 323 0c36,0 66,13 91,38 25,25 38,56 38,91 0,35 -13,65 -38,90 -25,25 -56,38 -91,38 -12,0 -26,0 -45,0 -18,0 -37,0 -57,0 -31,0 -59,0 -85,0 -26,0 -39,0 -39,0l0 0 0 0zm0 -161l0 64 226 0c8,0 16,-3 23,-9 7,-7 10,-14 10,-23 0,-9 -3,-17 -9,-23 -6,-6 -14,-10 -23,-10l-226 0zm485 321l-97 0 0 -418 97 0 0 418zm32 -418c0,0 17,1 50,1 33,0 70,0 110,0 35,0 67,0 97,0 30,0 50,0 59,0 36,0 66,13 91,38 25,25 38,55 38,91 0,15 -2,28 -7,41 -4,13 -10,25 -17,36 10,11 17,24 23,38 5,14 8,29 8,45l0 128 -97 0 0 -128c0,-8 -3,-15 -8,-21 -5,-6 -12,-10 -19,-11 -1,0 -13,0 -37,0 -24,0 -50,0 -79,0 -29,0 -55,0 -79,0 -24,0 -36,0 -36,0l0 161 -97 0 0 -419 0 0zm319 97l-222 0 0 64 222 0c8,0 16,-3 23,-9 7,-7 10,-14 10,-23 0,-9 -3,-17 -10,-23 -7,-6 -14,-10 -23,-10zm262 225l291 0 0 97 -388 0 0 -418 384 0 0 97 -287 0 0 64 275 0 0 97 -275 0 0 64 0 -1z"/>
 </g>
</svg>
