<?xml version="1.0" encoding="UTF-8"?>
<!DOCTYPE svg PUBLIC "-//W3C//DTD SVG 1.1//EN" "http://www.w3.org/Graphics/SVG/1.1/DTD/svg11.dtd">
<!-- Creator: CorelDRAW 2017 -->
<svg xmlns="http://www.w3.org/2000/svg" xml:space="preserve" width="210mm" height="297mm" version="1.1" style="shape-rendering:geometricPrecision; text-rendering:geometricPrecision; image-rendering:optimizeQuality; fill-rule:evenodd; clip-rule:evenodd"
viewBox="0 0 21000 29700"
 xmlns:xlink="http://www.w3.org/1999/xlink"
 sodipodi:docname="Aspire LH.svg"
 inkscape:version="1.1.2 (0a00cf5339, 2022-02-04)"
 xmlns:inkscape="http://www.inkscape.org/namespaces/inkscape"
 xmlns:sodipodi="http://sodipodi.sourceforge.net/DTD/sodipodi-0.dtd"
 xmlns:svg="http://www.w3.org/2000/svg"
 xmlns:rdf="http://www.w3.org/1999/02/22-rdf-syntax-ns#"
 xmlns:cc="http://creativecommons.org/ns#"
 xmlns:dc="http://purl.org/dc/elements/1.1/">
 <defs>
  <style type="text/css">
   <![CDATA[
    .str0 {stroke:#9F1778;stroke-width:78.06}
    .fil5 {fill:none}
    .fil2 {fill:#102A83}
    .fil4 {fill:#1B1918}
    .fil0 {fill:#979797}
    .fil3 {fill:#9F1778}
    .fil1 {fill:white}
   ]]>
  </style>
 </defs>
 <g id="Layer_x0020_1">
  <metadata id="CorelCorpID_0Corel-Layer"/>
  <sodipodi:namedview id="namedview71" pagecolor="#ffffff" bordercolor="#666666" borderopacity="1.0" inkscape:pageshadow="2" inkscape:pageopacity="0.0" inkscape:pagecheckerboard="0" showgrid="false" inkscape:zoom="0.86234567" inkscape:cx="298.02434" inkscape:cy="420.94489" inkscape:window-width="1920" inkscape:window-height="935" inkscape:window-x="0" inkscape:window-y="27" inkscape:window-maximized="1" inkscape:current-layer="svg2"/>
  <g id="g12">
   <path id="path14" class="fil0" d="M11160 9524c2390,95 4299,2040 4299,4426 0,2446 -2007,4430 -4482,4430 -2475,0 -4482,-1984 -4482,-4430 0,-2386 1909,-4331 4299,-4426l365 0z"/>
   <path id="path16" class="fil1" d="M11291 9759c2045,0 3755,1425 4168,3324l0 1781c-414,1900 -2123,3324 -4168,3324 -2355,0 -4264,-1887 -4264,-4215 0,-2327 1909,-4215 4264,-4215z"/>
  </g>
  <path id="path18" class="fil2" d="M11120 11198c239,0 433,190 433,424 0,234 -194,424 -433,424 -239,0 -433,-190 -433,-424 0,-234 194,-424 433,-424z"/>
  <path id="path20" class="fil3" d="M10398 11840c211,0 382,162 382,362 0,200 -171,362 -382,362 -211,0 -382,-162 -382,-362 0,-200 171,-362 382,-362z"/>
  <path id="path22" class="fil3" d="M11120 11193c239,0 432,190 432,424 0,234 -194,424 -432,424 -239,0 -432,-190 -432,-424 0,-234 194,-424 432,-424z"/>
  <path id="path24" class="fil3" d="M9804 12437c162,0 294,116 294,260 0,143 -132,260 -294,260 -162,0 -294,-116 -294,-260 0,-144 132,-260 294,-260z"/>
  <path id="path26" class="fil3" d="M8945 13304c89,0 162,61 162,137 0,76 -72,137 -162,137 -89,0 -162,-61 -162,-137 0,-76 72,-137 162,-137z"/>
  <path id="path28" class="fil3" d="M9309 12904c140,0 253,100 253,224 0,124 -113,224 -253,224 -140,0 -253,-100 -253,-224 0,-124 114,-224 253,-224z"/>
  <path id="path30" class="fil4" d="M9316 15302l0 69c-31,17 -61,26 -90,26 -40,0 -74,-15 -104,-44 -30,-30 -45,-64 -45,-103 0,-44 15,-81 45,-110 30,-29 67,-44 112,-44 27,0 54,7 82,21l0 67c-30,-19 -59,-29 -86,-29 -25,0 -47,9 -66,26 -19,18 -28,38 -28,62 0,26 9,49 26,67 18,18 39,27 65,27 26,0 56,-12 89,-35l0 0zm43 -57c0,-39 15,-74 46,-104 31,-30 66,-45 107,-45 41,0 77,15 108,45 31,30 46,65 46,105 0,40 -15,75 -45,106 -30,31 -65,46 -105,46 -42,0 -79,-15 -110,-45 -31,-30 -47,-66 -47,-107l0 0zm249 0c0,-24 -9,-45 -28,-63 -18,-18 -40,-27 -66,-27 -26,0 -49,9 -68,27 -19,18 -28,40 -28,65 0,24 10,45 29,63 19,18 42,27 67,27 25,0 47,-9 66,-28 19,-18 28,-40 28,-64l0 0zm190 -141l0 59 0 0c14,-24 27,-40 40,-51 13,-11 30,-16 50,-16 6,0 14,1 25,4l-18 60c-12,-2 -19,-4 -23,-4 -20,0 -37,7 -51,21 -14,14 -21,32 -21,53l0 158 -60 0 0 -285 59 0zm238 0l0 57 0 0c29,-44 66,-65 111,-65 37,0 69,15 96,44 27,29 40,65 40,105 0,41 -14,77 -41,107 -27,30 -59,45 -96,45 -21,0 -42,-5 -61,-17 -20,-11 -36,-27 -49,-48l0 0 0 191 -60 0 0 -419 60 0zm184 141c0,-25 -10,-47 -28,-66 -19,-19 -41,-28 -67,-28 -26,0 -49,9 -68,28 -19,19 -29,41 -29,66 0,26 9,49 28,68 19,19 41,29 67,29 27,0 49,-9 68,-28 19,-19 28,-42 28,-68zm125 0c0,-39 15,-74 46,-104 31,-30 66,-45 107,-45 41,0 77,15 108,45 31,30 46,65 46,105 0,40 -15,75 -45,106 -30,31 -65,46 -105,46 -42,0 -79,-15 -110,-45 -31,-30 -47,-66 -47,-107l0 0zm249 0c0,-24 -9,-45 -28,-63 -18,-18 -40,-27 -66,-27 -26,0 -49,9 -68,27 -19,18 -28,40 -28,65 0,24 10,45 29,63 19,18 42,27 67,27 25,0 47,-9 66,-28 19,-18 28,-40 28,-64l0 0zm190 -141l0 59 0 0c14,-24 27,-40 40,-51 13,-11 30,-16 50,-16 6,0 14,1 25,4l-18 60c-12,-2 -19,-4 -23,-4 -20,0 -37,7 -51,21 -14,14 -21,32 -21,53l0 158 -61 0 0 -285 59 0zm405 0l61 0 0 285 -61 0 0 -57c-29,43 -66,65 -110,65 -38,0 -70,-15 -97,-44 -27,-30 -40,-65 -40,-108 0,-40 14,-75 40,-105 27,-30 59,-45 95,-45 23,0 44,6 64,18 20,12 36,28 47,48l0 -58zm8 144c0,-26 -9,-48 -28,-67 -19,-19 -41,-28 -67,-28 -26,0 -48,9 -67,28 -19,19 -28,40 -28,65 0,27 9,50 28,69 19,19 41,28 68,28 26,0 49,-9 67,-28 19,-19 28,-41 28,-67l0 0zm163 -227l61 0 0 83 60 0 0 55 -60 0 0 230 -61 0 0 -230 -48 0 0 -56 48 0 0 -82zm460 237l-245 0c5,29 17,51 36,64 19,13 39,20 62,20 34,0 63,-14 86,-43l44 33c-33,43 -77,64 -133,64 -43,0 -78,-15 -107,-44 -29,-29 -43,-65 -43,-108 0,-40 14,-75 44,-105 29,-30 65,-44 107,-44 41,0 77,15 106,45 29,30 44,69 43,117l0 0zm-238 -48l175 0c-19,-39 -48,-59 -86,-59 -41,0 -71,20 -89,59zm677 -72l-40 35c-10,-7 -19,-13 -27,-17 -8,-4 -17,-6 -27,-6 -25,0 -37,9 -37,27 0,13 16,25 47,38 31,12 54,25 67,40 14,15 21,32 21,53 0,24 -10,45 -30,63 -20,18 -43,27 -70,27 -41,0 -74,-19 -100,-56l48 -23c17,16 34,24 52,24 13,0 23,-3 33,-10 9,-7 14,-15 14,-24 0,-16 -16,-30 -49,-43 -33,-13 -56,-26 -68,-39 -13,-13 -19,-29 -19,-48 0,-24 9,-44 27,-59 18,-16 41,-24 68,-24 27,0 58,14 91,42l0 0zm48 108c0,-39 15,-74 46,-104 31,-30 66,-45 107,-45 41,0 77,15 108,45 31,30 46,65 46,105 0,40 -15,75 -45,106 -30,31 -65,46 -105,46 -42,0 -79,-15 -110,-45 -31,-30 -47,-66 -47,-107l0 0zm249 0c0,-24 -9,-45 -28,-63 -18,-18 -40,-27 -66,-27 -26,0 -49,9 -68,27 -19,18 -28,40 -28,65 0,24 10,45 29,63 19,18 42,27 67,27 25,0 47,-9 66,-28 19,-18 28,-40 28,-64l0 0zm132 -305l61 0 0 449 -61 0 0 -449zm137 164l61 0 0 161c0,50 22,74 66,74 20,0 35,-7 46,-20 11,-13 17,-31 17,-55l0 -161 60 0 0 170c0,36 -12,65 -35,88 -24,23 -53,35 -90,35 -37,0 -67,-11 -90,-35 -23,-23 -34,-53 -34,-90l0 -168zm342 -83l60 0 0 83 60 0 0 55 -60 0 0 230 -60 0 0 -230 -48 0 0 -56 48 0 0 -82zm162 -11c0,-12 5,-23 14,-32 9,-9 20,-14 33,-14 12,0 23,5 33,14 9,9 14,20 14,32 0,13 -5,24 -14,32 -9,9 -20,14 -33,14 -13,0 -24,-5 -33,-14 -9,-9 -14,-20 -14,-32zm17 94l60 0 0 285 -60 0 0 -285zm134 141c0,-39 15,-74 46,-104 31,-30 66,-45 107,-45 41,0 77,15 108,45 31,30 46,65 46,105 0,40 -15,75 -45,106 -30,31 -65,46 -105,46 -42,0 -79,-15 -110,-45 -31,-30 -47,-66 -47,-107l0 0zm249 0c0,-24 -9,-45 -28,-63 -19,-18 -40,-27 -66,-27 -26,0 -49,9 -68,27 -19,18 -28,40 -28,65 0,24 10,45 29,63 19,18 42,27 67,27 25,0 47,-9 66,-28 19,-18 28,-40 28,-64l0 0zm112 144l0 -285 59 0 0 47c17,-19 33,-33 47,-42 14,-9 30,-13 47,-13 26,0 48,8 67,26 18,17 28,38 28,62l0 206 -61 0 0 -189c0,-15 -5,-28 -15,-38 -10,-10 -23,-15 -38,-15 -20,0 -37,8 -52,26 -15,17 -22,37 -22,61l0 155 -60 0zm496 -251l-40 35c-10,-7 -19,-13 -27,-17 -8,-4 -17,-6 -27,-6 -25,0 -37,9 -37,27 0,13 16,25 47,38 31,12 54,25 67,40 14,15 21,32 21,53 0,24 -10,45 -30,63 -20,18 -43,27 -70,27 -41,0 -74,-19 -100,-56l48 -23c17,16 34,24 52,24 13,0 23,-3 33,-10 9,-7 14,-15 14,-24 0,-16 -17,-30 -49,-43 -33,-13 -56,-26 -68,-39 -13,-13 -19,-29 -19,-48 0,-24 9,-44 27,-59 18,-16 41,-24 68,-24 27,0 58,14 91,42l0 0z"/>
  <line id="path32" class="fil5 str0" x1="7754" y1="14906" x2="14303" y2= "14866" />
  <path id="path34" class="fil4" d="M8087 14355l-86 149 0 268 -253 0 0 -339 342 -584c29,-51 69,-92 118,-122 49,-30 107,-44 172,-44 66,0 123,13 171,39 48,26 88,69 122,129l339 582 0 339 -253 0 0 -273 -84 -144 -588 0zm441 -252l-74 -127c-9,-18 -19,-29 -31,-34 -12,-4 -26,-7 -43,-7 -15,0 -27,2 -36,5 -10,3 -19,12 -28,25 -1,2 -2,4 -3,6 -1,2 -2,4 -3,6l-74 126 293 0zm1488 252c0,0 -35,0 -105,0 -70,0 -148,0 -233,0 -45,0 -89,0 -131,0 -43,0 -80,0 -113,0 -92,0 -171,-33 -238,-99 -66,-66 -99,-144 -99,-236 0,-93 33,-171 99,-237 66,-65 145,-98 238,-98l927 -2 0 252 -927 0c-22,1 -42,10 -59,26 -17,16 -25,36 -25,60 0,22 9,42 26,59 17,17 37,25 58,25 0,0 31,0 92,0 61,0 128,0 201,0 66,0 128,0 185,0 57,0 92,0 104,0 93,0 173,33 238,99 66,66 99,145 99,238 0,92 -33,170 -99,236 -66,65 -145,98 -238,98l-922 0 0 -253 922 0c24,1 44,-7 60,-24 16,-17 24,-37 24,-59 0,-24 -8,-44 -24,-60 -16,-17 -36,-25 -60,-25zm681 0l0 419 -253 0 0 -1090 843 0c93,1 173,35 238,100 66,66 99,145 99,238 0,91 -33,170 -99,235 -66,65 -145,98 -238,98 -30,0 -69,0 -117,0 -48,0 -97,0 -149,0 -81,0 -155,0 -222,0 -67,0 -101,0 -101,0l0 0zm0 -419l0 168 590 0c22,1 42,-7 59,-24 17,-17 25,-37 25,-59 0,-24 -8,-44 -24,-60 -16,-16 -36,-25 -60,-25l-590 0zm1264 838l-253 0 0 -1090 253 0 0 1090zm84 -1090c0,1 44,2 131,2 87,0 183,0 287,0 90,0 174,0 254,0 79,0 130,0 153,0 93,0 173,33 238,98 66,65 99,144 99,237 0,38 -6,74 -17,108 -11,34 -26,66 -44,95 26,29 45,62 59,99 13,37 20,76 20,117l0 334 -253 0 0 -335c0,-20 -7,-38 -21,-54 -14,-16 -31,-25 -50,-29 -2,0 -35,0 -97,0 -62,0 -131,0 -205,0 -75,0 -144,0 -207,0 -63,0 -94,0 -94,0l0 419 -253 0 0 -1092zm832 252l-580 0 0 168 580 0c22,1 42,-7 59,-24 17,-17 25,-37 25,-59 0,-24 -8,-44 -25,-60 -17,-16 -37,-25 -59,-25zm684 587l758 0 0 252 -1011 0 0 -1090 1001 0 0 252 -748 0 0 168 716 0 0 252 -716 0 0 168z"/>
 </g>
</svg>
